HIERARCHY
ROOT __0
{
	OFFSET 0.0 0.0 0.0
	CHANNELS 0
	JOINT Hips
	{
		OFFSET 0.000000 83.239204 0.414298
		CHANNELS 6 Xposition Yposition Zposition Xrotation Yrotation Zrotation
		JOINT Spine
		{
			OFFSET 0.000000 7.722015 1.166202
			CHANNELS 3 Xrotation Yrotation Zrotation
			JOINT Spine1
			{
				OFFSET 0.000000 12.024078 0.248768
				CHANNELS 3 Xrotation Yrotation Zrotation
				JOINT Spine2
				{
					OFFSET 0.000000 11.503044 -0.491237
					CHANNELS 3 Xrotation Yrotation Zrotation
					JOINT Neck
					{
						OFFSET 0.000000 18.430695 -3.123050
						CHANNELS 3 Xrotation Yrotation Zrotation
						JOINT Head
						{
							OFFSET 0.000000 9.051025 1.034023
							CHANNELS 3 Xrotation Yrotation Zrotation
							JOINT Head_VIRTUAL_END
							{
								OFFSET 0.000000 44.896515 0.000014
								CHANNELS 3 Xrotation Yrotation Zrotation
								End Site
								{
									OFFSET 0.000000 44.896515 0.000013
								}
							}
						}
					}
				}
				JOINT Spine2--LeftShoulder
				{
					OFFSET 0.000000 11.503044 -0.491237
					CHANNELS 3 Xrotation Yrotation Zrotation
					JOINT LeftShoulder
					{
						OFFSET 6.199996 13.477776 -5.751935
						CHANNELS 3 Xrotation Yrotation Zrotation
						JOINT LeftArm
						{
							OFFSET 7.775965 0.000351 -0.022066
							CHANNELS 3 Xrotation Yrotation Zrotation
							JOINT LeftForeArm
							{
								OFFSET 22.049372 0.000023 0.000011
								CHANNELS 3 Xrotation Yrotation Zrotation
								JOINT LeftHand--LeftHandThumb1
								{
									OFFSET 23.009411 0.000000 0.000006
									CHANNELS 3 Xrotation Yrotation Zrotation
									JOINT LeftHandThumb1
									{
										OFFSET 3.507175 -2.063034 3.133709
										CHANNELS 3 Xrotation Yrotation Zrotation
										JOINT LeftHandThumb2
										{
											OFFSET 3.101345 -1.790520 1.790589
											CHANNELS 3 Xrotation Yrotation Zrotation
											JOINT LeftHandThumb3
											{
												OFFSET 3.058578 -1.765900 1.765943
												CHANNELS 3 Xrotation Yrotation Zrotation
												JOINT LeftHandThumb3_VIRTUAL_END
												{
													OFFSET 2.095795 -1.209991 1.209977
													CHANNELS 3 Xrotation Yrotation Zrotation
													End Site
													{
														OFFSET 2.095795 -1.209991 1.209975
													}
												}
											}
										}
									}
								}
								JOINT LeftHand--LeftHandIndex1
								{
									OFFSET 23.009411 0.000000 0.000006
									CHANNELS 3 Xrotation Yrotation Zrotation
									JOINT LeftHandIndex1
									{
										OFFSET 11.334435 -0.901443 3.706788
										CHANNELS 3 Xrotation Yrotation Zrotation
										JOINT LeftHandIndex2
										{
											OFFSET 3.283096 0.000000 0.000001
											CHANNELS 3 Xrotation Yrotation Zrotation
											JOINT LeftHandIndex3
											{
												OFFSET 3.323830 -0.000053 -0.000002
												CHANNELS 3 Xrotation Yrotation Zrotation
												JOINT LeftHandIndex3_VIRTUAL_END
												{
													OFFSET 2.334335 -0.000008 0.000010
													CHANNELS 3 Xrotation Yrotation Zrotation
													End Site
													{
														OFFSET 2.334335 0.000000 0.000010
													}
												}
											}
										}
									}
								}
								JOINT LeftHand
								{
									OFFSET 23.009411 0.000000 0.000006
									CHANNELS 3 Xrotation Yrotation Zrotation
									JOINT LeftHandMiddle1
									{
										OFFSET 11.335838 -0.000015 0.000021
										CHANNELS 3 Xrotation Yrotation Zrotation
										JOINT LeftHandMiddle2
										{
											OFFSET 3.410522 0.000053 0.000019
											CHANNELS 3 Xrotation Yrotation Zrotation
											JOINT LeftHandMiddle3
											{
												OFFSET 3.312218 0.000000 0.000053
												CHANNELS 3 Xrotation Yrotation Zrotation
												JOINT LeftHandMiddle3_VIRTUAL_END
												{
													OFFSET 2.752052 0.000000 0.000051
													CHANNELS 3 Xrotation Yrotation Zrotation
													End Site
													{
														OFFSET 2.752052 0.000000 0.000052
													}
												}
											}
										}
									}
								}
								JOINT LeftHand--LeftHandRing1
								{
									OFFSET 23.009411 0.000000 0.000006
									CHANNELS 3 Xrotation Yrotation Zrotation
									JOINT LeftHandRing1
									{
										OFFSET 11.497093 -0.008911 -3.070044
										CHANNELS 3 Xrotation Yrotation Zrotation
										JOINT LeftHandRing2
										{
											OFFSET 3.070992 -0.004219 0.066992
											CHANNELS 3 Xrotation Yrotation Zrotation
											JOINT LeftHandRing3
											{
												OFFSET 3.295853 0.000015 0.000045
												CHANNELS 3 Xrotation Yrotation Zrotation
												JOINT LeftHandRing3_VIRTUAL_END
												{
													OFFSET 2.280708 -0.000023 -0.000046
													CHANNELS 3 Xrotation Yrotation Zrotation
													End Site
													{
														OFFSET 2.280708 -0.000015 -0.000047
													}
												}
											}
										}
									}
								}
								JOINT LeftHand--LeftHandPinky1
								{
									OFFSET 23.009411 0.000000 0.000006
									CHANNELS 3 Xrotation Yrotation Zrotation
									JOINT LeftHandPinky1
									{
										OFFSET 10.518677 -0.960396 -5.730453
										CHANNELS 3 Xrotation Yrotation Zrotation
										JOINT LeftHandPinky2
										{
											OFFSET 2.861656 0.000031 0.000053
											CHANNELS 3 Xrotation Yrotation Zrotation
											JOINT LeftHandPinky3
											{
												OFFSET 2.863365 -0.000023 0.000010
												CHANNELS 3 Xrotation Yrotation Zrotation
												JOINT LeftHandPinky3_VIRTUAL_END
												{
													OFFSET 1.659561 0.000000 0.000006
													CHANNELS 3 Xrotation Yrotation Zrotation
													End Site
													{
														OFFSET 1.659561 -0.000015 0.000007
													}
												}
											}
										}
									}
								}
							}
						}
					}
				}
				JOINT Spine2--RightShoulder
				{
					OFFSET 0.000000 11.503044 -0.491237
					CHANNELS 3 Xrotation Yrotation Zrotation
					JOINT RightShoulder
					{
						OFFSET -6.200007 13.477783 -5.796076
						CHANNELS 3 Xrotation Yrotation Zrotation
						JOINT RightArm
						{
							OFFSET -7.775960 0.000366 0.022064
							CHANNELS 3 Xrotation Yrotation Zrotation
							JOINT RightForeArm
							{
								OFFSET -22.049358 0.000008 0.000008
								CHANNELS 3 Xrotation Yrotation Zrotation
								JOINT RightHand--RightHandThumb1
								{
									OFFSET -23.009392 0.000008 0.000001
									CHANNELS 3 Xrotation Yrotation Zrotation
									JOINT RightHandThumb1
									{
										OFFSET -3.507164 -2.063026 3.133703
										CHANNELS 3 Xrotation Yrotation Zrotation
										JOINT RightHandThumb2
										{
											OFFSET -3.101360 -1.790520 1.790584
											CHANNELS 3 Xrotation Yrotation Zrotation
											JOINT RightHandThumb3
											{
												OFFSET -3.058594 -1.765907 1.765947
												CHANNELS 3 Xrotation Yrotation Zrotation
												JOINT RightHandThumb3_VIRTUAL_END
												{
													OFFSET -2.055473 -1.186378 1.186662
													CHANNELS 3 Xrotation Yrotation Zrotation
													End Site
													{
														OFFSET -2.055473 -1.186378 1.186661
													}
												}
											}
										}
									}
								}
								JOINT RightHand--RightHandIndex1
								{
									OFFSET -23.009392 0.000008 0.000001
									CHANNELS 3 Xrotation Yrotation Zrotation
									JOINT RightHandIndex1
									{
										OFFSET -11.334423 -0.901451 3.706780
										CHANNELS 3 Xrotation Yrotation Zrotation
										JOINT RightHandIndex2
										{
											OFFSET -3.283112 -0.000008 0.000000
											CHANNELS 3 Xrotation Yrotation Zrotation
											JOINT RightHandIndex3
											{
												OFFSET -3.323837 -0.000046 -0.000003
												CHANNELS 3 Xrotation Yrotation Zrotation
												JOINT RightHandIndex3_VIRTUAL_END
												{
													OFFSET -2.363564 0.000313 0.000042
													CHANNELS 3 Xrotation Yrotation Zrotation
													End Site
													{
														OFFSET -2.363564 0.000290 0.000042
													}
												}
											}
										}
									}
								}
								JOINT RightHand
								{
									OFFSET -23.009392 0.000008 0.000001
									CHANNELS 3 Xrotation Yrotation Zrotation
									JOINT RightHandMiddle1
									{
										OFFSET -11.335835 0.000008 0.000020
										CHANNELS 3 Xrotation Yrotation Zrotation
										JOINT RightHandMiddle2
										{
											OFFSET -3.410515 0.000053 0.000019
											CHANNELS 3 Xrotation Yrotation Zrotation
											JOINT RightHandMiddle3
											{
												OFFSET -3.312225 -0.000008 0.000052
												CHANNELS 3 Xrotation Yrotation Zrotation
												JOINT RightHandMiddle3_VIRTUAL_END
												{
													OFFSET -2.691521 0.000359 0.000002
													CHANNELS 3 Xrotation Yrotation Zrotation
													End Site
													{
														OFFSET -2.691521 0.000351 0.000002
													}
												}
											}
										}
									}
								}
								JOINT RightHand--RightHandRing1
								{
									OFFSET -23.009392 0.000008 0.000001
									CHANNELS 3 Xrotation Yrotation Zrotation
									JOINT RightHandRing1
									{
										OFFSET -11.514767 -0.013184 -3.003043
										CHANNELS 3 Xrotation Yrotation Zrotation
										JOINT RightHandRing2
										{
											OFFSET -3.053337 0.000053 0.000018
											CHANNELS 3 Xrotation Yrotation Zrotation
											JOINT RightHandRing3
											{
												OFFSET -3.295830 0.000008 0.000081
												CHANNELS 3 Xrotation Yrotation Zrotation
												JOINT RightHandRing3_VIRTUAL_END
												{
													OFFSET -2.353195 0.000298 0.000004
													CHANNELS 3 Xrotation Yrotation Zrotation
													End Site
													{
														OFFSET -2.353195 0.000305 0.000004
													}
												}
											}
										}
									}
								}
								JOINT RightHand--RightHandPinky1
								{
									OFFSET -23.009392 0.000008 0.000001
									CHANNELS 3 Xrotation Yrotation Zrotation
									JOINT RightHandPinky1
									{
										OFFSET -10.518681 -0.960396 -5.730450
										CHANNELS 3 Xrotation Yrotation Zrotation
										JOINT RightHandPinky2
										{
											OFFSET -2.861664 0.000023 0.000053
											CHANNELS 3 Xrotation Yrotation Zrotation
											JOINT RightHandPinky3
											{
												OFFSET -2.863350 -0.000023 0.000011
												CHANNELS 3 Xrotation Yrotation Zrotation
												JOINT RightHandPinky3_VIRTUAL_END
												{
													OFFSET -1.612122 0.000206 0.000005
													CHANNELS 3 Xrotation Yrotation Zrotation
													End Site
													{
														OFFSET -1.612122 0.000206 0.000005
													}
												}
											}
										}
									}
								}
							}
						}
					}
				}
			}
		}
	}
	JOINT Hips--RightUpLeg
	{
		OFFSET 0.000000 83.239204 0.414298
		CHANNELS 6 Xposition Yposition Zposition Xrotation Yrotation Zrotation
		JOINT RightUpLeg
		{
			OFFSET -8.479688 -4.795517 -0.379051
			CHANNELS 3 Xrotation Yrotation Zrotation
			JOINT RightLeg
			{
				OFFSET -0.023137 -32.551285 0.510868
				CHANNELS 3 Xrotation Yrotation Zrotation
				JOINT RightFoot
				{
					OFFSET 0.023160 -32.666885 -2.688541
					CHANNELS 3 Xrotation Yrotation Zrotation
					JOINT RightToeBase
					{
						OFFSET -0.970188 -13.225679 11.864522
						CHANNELS 3 Xrotation Yrotation Zrotation
						JOINT RightToeBase_VIRTUAL_END
						{
							OFFSET -0.617365 -0.031907 7.549676
							CHANNELS 3 Xrotation Yrotation Zrotation
							End Site
							{
								OFFSET -0.617366 -0.031907 7.549677
							}
						}
					}
				}
			}
		}
	}
	JOINT Hips--LeftUpLeg
	{
		OFFSET 0.000000 83.239204 0.414298
		CHANNELS 6 Xposition Yposition Zposition Xrotation Yrotation Zrotation
		JOINT LeftUpLeg
		{
			OFFSET 8.479693 -4.795517 -0.379051
			CHANNELS 3 Xrotation Yrotation Zrotation
			JOINT LeftLeg
			{
				OFFSET 0.024092 -32.551292 0.510666
				CHANNELS 3 Xrotation Yrotation Zrotation
				JOINT LeftFoot
				{
					OFFSET -0.024113 -32.666889 -2.688383
					CHANNELS 3 Xrotation Yrotation Zrotation
					JOINT LeftToeBase
					{
						OFFSET 0.970191 -13.225686 11.864517
						CHANNELS 3 Xrotation Yrotation Zrotation
						JOINT LeftToeBase_VIRTUAL_END
						{
							OFFSET 0.617339 -0.031856 7.549689
							CHANNELS 3 Xrotation Yrotation Zrotation
							End Site
							{
								OFFSET 0.617338 -0.031856 7.549690
							}
						}
					}
				}
			}
		}
	}
}
MOTION
Frames: 4
Frame Time: 0.016667
0.001625 81.199539 0.001375 -17.579023 -6.546157 7.448497 10.994735 1.309749 -5.034954 4.666352 1.730001 -2.802045 14.293107 1.199817 -3.036231 -18.918186 0.222864 -5.048616 4.793528 -2.292234 2.025728 -0.000000 -0.000000 0.000000 11.094665 -9.550368 1.843566 -3.081706 -2.322872 -11.721860 5.772157 3.720994 -60.112980 11.491897 -25.077133 -5.820580 -9.137195 4.451079 5.984902 -31.720123 10.985989 3.377322 17.680279 19.462143 0.127450 -0.000454 -0.001066 -0.000314 -0.000004 -0.000003 -0.000001 -10.441917 -0.102582 5.066333 -1.401917 9.052985 -5.301440 2.739597 6.815827 -29.836763 -0.000115 0.000300 -0.000685 -0.000000 0.000000 -0.000001 -8.199982 -3.558124 7.163345 -8.982863 7.077544 -9.540022 4.276630 7.172256 -39.701226 -0.000024 0.000198 0.000096 -0.000002 -0.000001 0.000002 -4.770479 -5.477663 8.835463 -18.784784 12.496155 -22.266246 4.108880 5.678948 -36.745424 -0.000008 -0.001901 -0.000097 0.000000 0.000000 -0.000001 -0.840105 -6.327247 9.653868 -28.649246 14.804464 -31.921036 1.911174 2.505116 -24.352700 -0.000015 -0.000006 -0.000289 0.000000 0.000000 0.000003 9.572481 8.468926 -7.887747 -1.068659 5.381180 12.785487 -3.939744 -11.622553 68.564991 15.857384 12.603499 4.140683 -6.677691 -5.795530 -5.915020 -31.814645 -13.756256 -3.617494 15.723244 -18.481954 0.453684 0.002342 0.001885 0.006287 0.000001 0.000003 0.000005 -9.232917 -2.356526 -4.474574 -2.559817 -9.371348 5.564394 2.733574 -6.792461 29.841575 -0.000126 -0.001093 0.008099 0.000000 0.000002 -0.000003 -8.264492 0.909602 -6.259745 -8.983160 -7.069761 9.544843 4.266604 -7.143989 39.707209 0.000010 0.000902 0.007378 0.000000 0.000000 -0.000002 -5.871691 2.943993 -7.974467 -18.226590 -11.329572 22.520845 4.102317 -6.904490 36.759392 -0.000024 0.001307 0.007283 0.000000 -0.000000 -0.000000 -2.437892 4.041968 -9.232913 -26.965672 -15.208068 32.765930 1.907173 -2.488012 24.354283 -0.000009 0.000109 0.007679 -0.000001 0.000000 -0.000001 0.001627 81.199539 0.001370 4.888690 16.834581 10.036056 -30.264278 -30.578197 -35.038058 26.339527 0.496828 0.299200 -9.041143 -9.756181 8.766855 -0.000180 -0.000040 0.000321 0.000000 0.000000 -0.000001 0.001630 81.199547 0.001372 13.357587 -13.329718 9.888937 -11.384953 26.435858 -11.274892 8.009906 0.234952 -0.018465 -7.365095 -1.021406 4.604181 0.000042 0.000046 -0.000026 -0.000000 0.000003 -0.000000 
0.001625 81.199539 0.001375 -17.579023 -6.546157 7.448497 10.994735 1.309749 -5.034954 4.666352 1.730001 -2.802045 14.293107 1.199817 -3.036231 -18.918186 0.222864 -5.048616 4.793528 -2.292234 2.025728 -0.000000 -0.000000 0.000000 11.094665 -9.550368 1.843566 -3.081706 -2.322872 -11.721860 5.772157 3.720994 -60.112980 11.491897 -25.077133 -5.820580 -9.137195 4.451079 5.984902 -21.535732 9.108476 -3.949032 5.702676 22.366662 5.522062 -0.000453 -0.001068 -0.000314 -0.000008 -0.000007 -0.000001 -10.441917 -0.102582 5.066333 -1.401917 9.052985 -5.301440 2.739597 6.815827 -29.836763 -0.000115 0.000300 -0.000685 -0.000000 0.000000 -0.000001 -8.199982 -3.558124 7.163345 -8.982863 7.077544 -9.540022 4.276630 7.172256 -39.701226 -0.000024 0.000198 0.000096 -0.000002 -0.000001 0.000002 -4.770479 -5.477663 8.835463 -18.784784 12.496155 -22.266246 4.108880 5.678948 -36.745424 -0.000008 -0.001901 -0.000097 0.000000 0.000000 -0.000001 -0.840105 -6.327247 9.653868 -28.649246 14.804464 -31.921036 1.911174 2.505116 -24.352700 -0.000015 -0.000006 -0.000289 0.000000 0.000000 0.000003 9.572481 8.468926 -7.887747 -1.068659 5.381180 12.785487 -3.939744 -11.622553 68.564991 15.857384 12.603499 4.140683 -6.677691 -5.795530 -5.915020 -23.732469 -10.924517 4.341767 5.712850 -22.368740 -5.508300 0.002341 0.001886 0.006287 -0.000000 0.000003 0.000002 -9.232917 -2.356526 -4.474574 -2.559817 -9.371348 5.564394 2.733574 -6.792461 29.841575 -0.000126 -0.001093 0.008099 0.000000 0.000002 -0.000003 -8.264492 0.909602 -6.259745 -8.983160 -7.069761 9.544843 4.266604 -7.143989 39.707209 0.000010 0.000902 0.007378 0.000000 0.000000 -0.000002 -5.871691 2.943993 -7.974467 -18.226590 -11.329572 22.520845 4.102317 -6.904490 36.759392 -0.000024 0.001307 0.007283 0.000000 -0.000000 -0.000000 -2.437892 4.041968 -9.232913 -26.965672 -15.208068 32.765930 1.907173 -2.488012 24.354283 -0.000009 0.000109 0.007679 -0.000001 0.000000 -0.000001 0.001627 81.199539 0.001370 4.888690 16.834581 10.036056 -30.264278 -30.578197 -35.038058 26.339527 0.496828 0.299200 -9.041143 -9.756181 8.766855 -0.000180 -0.000040 0.000321 0.000000 0.000000 -0.000001 0.001630 81.199547 0.001372 13.357587 -13.329718 9.888937 -11.384953 26.435858 -11.274892 8.009906 0.234952 -0.018465 -7.365095 -1.021406 4.604181 0.000042 0.000046 -0.000026 -0.000000 0.000003 -0.000000 
0.006219 81.198883 0.009756 -17.577690 -6.572055 7.455658 10.994115 1.309706 -5.039999 4.665260 1.731688 -2.803930 14.292000 1.201287 -3.038391 -18.770548 0.245317 -5.037855 4.955062 -2.223334 1.724195 -0.000000 -0.000000 0.000001 11.094719 -9.549665 1.840807 -3.116530 -2.468448 -11.816355 5.483887 4.327666 -60.226532 11.443536 -25.154637 -5.591405 -9.225675 4.403598 5.844706 -21.682644 8.974219 -4.197471 5.685230 22.300252 5.747258 -0.000451 -0.001065 -0.000312 -0.000003 -0.000009 -0.000003 -10.471498 -0.236771 4.953239 -1.356043 8.951676 -5.187857 2.727215 6.806061 -29.749876 -0.000113 0.000297 -0.000685 -0.000000 -0.000001 0.000003 -8.193316 -3.705679 7.064589 -8.938694 7.043487 -9.485931 4.254899 7.160799 -39.561637 -0.000025 0.000199 0.000100 -0.000001 -0.000001 0.000002 -4.748157 -5.621247 8.734934 -18.724877 12.457675 -22.202379 4.089332 5.669305 -36.630919 -0.000008 -0.001904 -0.000097 -0.000000 -0.000000 0.000003 -0.830229 -6.466161 9.544261 -28.540690 14.748474 -31.836277 1.901822 2.494987 -24.282265 -0.000015 -0.000007 -0.000291 -0.000000 -0.000001 0.000001 9.570627 8.468291 -7.889569 -1.088970 5.431905 12.872980 -4.054204 -11.842381 68.517569 17.854092 12.765875 3.264219 -6.740914 -5.777664 -6.339919 -23.873210 -10.866361 3.918944 5.990452 -22.519419 -5.100747 0.002342 0.001887 0.006286 -0.000000 0.000001 0.000003 -9.314939 -2.443942 -4.884311 -2.527127 -9.369830 5.559359 2.733571 -6.792466 29.841568 -0.000123 -0.001098 0.008098 -0.000000 -0.000000 -0.000002 -8.289475 0.813570 -6.671177 -8.983183 -7.069767 9.544838 4.266603 -7.143995 39.707202 0.000011 0.000899 0.007390 0.000000 -0.000000 -0.000001 -5.817959 2.843775 -8.385252 -18.289689 -11.350664 22.513830 4.102299 -6.904496 36.759388 -0.000020 0.001304 0.007292 -0.000000 -0.000000 -0.000000 -2.271966 3.931969 -9.618544 -27.140925 -15.245257 32.715503 1.907172 -2.488011 24.354248 -0.000008 0.000107 0.007677 0.000000 -0.000001 0.000001 0.006217 81.198875 0.009754 4.866507 16.843889 10.056036 -30.247366 -30.576841 -35.059744 26.348599 0.496404 0.299228 -9.051523 -9.763768 8.771935 -0.000181 -0.000040 0.000321 0.000000 -0.000000 -0.000000 0.006221 81.198883 0.009757 13.377575 -13.316790 9.906822 -11.341250 26.424125 -11.319242 7.949830 0.235819 -0.017344 -7.354574 -1.024368 4.605188 0.000040 0.000050 -0.000028 -0.000000 -0.000000 0.000000 
0.013444 81.194344 0.023114 -17.589141 -6.625726 7.476432 10.993674 1.309476 -5.053974 4.664310 1.732783 -2.810376 14.290975 1.200787 -3.044985 -18.414079 0.304298 -5.019542 5.105624 -2.107265 1.119622 0.000000 0.000000 -0.000000 11.093387 -9.552271 1.834543 -3.220498 -2.861872 -11.862400 5.201515 5.538965 -60.658842 11.107392 -25.697695 -4.990221 -9.314161 4.356259 5.704340 -22.073464 8.754959 -4.479250 5.632571 22.108156 5.881346 -0.000453 -0.001065 -0.000310 -0.000006 -0.000009 -0.000004 -10.501201 -0.370958 4.840006 -1.293802 8.693015 -4.886264 2.692604 6.778481 -29.506970 -0.000114 0.000295 -0.000701 0.000001 -0.000000 0.000001 -8.186777 -3.853247 6.965737 -8.814205 6.950059 -9.334277 4.194001 7.127945 -39.171606 -0.000025 0.000197 0.000104 -0.000000 0.000000 0.000007 -4.725977 -5.764831 8.634315 -18.518344 12.371049 -22.041536 4.034689 5.641526 -36.311102 -0.000005 -0.001903 -0.000094 0.000000 -0.000001 0.000001 -0.820572 -6.605053 9.434498 -28.211748 14.654490 -31.633400 1.875845 2.466415 -24.085508 -0.000016 -0.000007 -0.000294 -0.000000 0.000000 0.000001 9.570120 8.464416 -7.894963 -1.138170 5.584266 12.959477 -4.173786 -12.371055 68.446200 21.371699 13.371465 1.502262 -6.787769 -5.793024 -7.346225 -24.058638 -11.023143 3.291553 6.297791 -22.673972 -4.496563 0.002340 0.001891 0.006287 -0.000000 0.000001 0.000001 -9.463314 -2.754808 -5.832828 -2.498321 -9.378669 5.558840 2.733564 -6.792464 29.841592 -0.000124 -0.001099 0.008094 -0.000000 0.000001 -0.000001 -8.356386 0.473628 -7.611460 -8.983166 -7.069763 9.544818 4.266590 -7.143986 39.707202 0.000013 0.000902 0.007391 0.000000 0.000000 0.000003 -5.738138 2.498917 -9.327205 -18.397950 -11.405149 22.507697 4.102299 -6.904491 36.759381 -0.000020 0.001304 0.007293 -0.000000 0.000001 -0.000004 -1.950107 3.570378 -10.518045 -27.484343 -15.355957 32.629873 1.907163 -2.488013 24.354247 -0.000009 0.000106 0.007690 -0.000000 0.000000 -0.000003 0.013450 81.194328 0.023113 4.829176 16.874484 10.102720 -30.250795 -30.557874 -35.127622 26.387883 0.497741 0.299477 -9.067278 -9.784551 8.789245 -0.000181 -0.000034 0.000319 -0.000000 0.000003 0.000000 0.013443 81.194336 0.023115 13.425800 -13.303360 9.951318 -11.344191 26.419380 -11.374263 7.915275 0.237816 -0.016127 -7.348479 -1.027817 4.608158 0.000038 0.000046 -0.000027 -0.000000 -0.000000 -0.000000 
